<?xml version="1.0" encoding="UTF-8"?>
<svg version="1.1" xmlns="http://www.w3.org/2000/svg" width="1024" height="1024">
<path d="M0 0 C337.92 0 675.84 0 1024 0 C1024 337.92 1024 675.84 1024 1024 C686.08 1024 348.16 1024 0 1024 C0 686.08 0 348.16 0 0 Z " fill="#FEFDFC" transform="translate(0,0)"/>
<path d="M0 0 C0.82845428 -0.0071553 1.65690857 -0.01431061 2.51046753 -0.02168274 C3.86873405 -0.02571609 3.86873405 -0.02571609 5.25444031 -0.02983093 C6.21084412 -0.03640213 7.16724792 -0.04297333 8.15263367 -0.04974365 C11.32157976 -0.06947452 14.49047849 -0.0811382 17.6594696 -0.09111023 C18.74145315 -0.09518576 19.8234367 -0.09926128 20.93820763 -0.10346031 C26.66389653 -0.12431916 32.38956147 -0.13862226 38.11528015 -0.147995 C44.03030465 -0.15906497 49.94495353 -0.19347249 55.85984516 -0.23316669 C60.40747785 -0.25930348 64.95502059 -0.26768419 69.50272179 -0.27127647 C71.6832095 -0.27614923 73.86369303 -0.28778274 76.04410744 -0.30631447 C79.09629283 -0.33064508 82.14750025 -0.32975188 85.19975281 -0.32279968 C86.54891029 -0.34201477 86.54891029 -0.34201477 87.92532349 -0.36161804 C93.43239833 -0.31592621 96.54882099 0.48715374 100.92118835 4.14717102 C105.13697839 8.48659126 107.24984257 12.627315 109.29618835 18.27217102 C109.59235046 19.05857971 109.88851257 19.8449884 110.19364929 20.65522766 C111.99018101 25.46831674 113.67902076 30.31591451 115.34477234 35.17549133 C118.61548028 44.7103055 122.2610133 54.03111198 126.10649109 63.3483429 C130.77956665 74.70953971 135.26560949 86.14149843 139.73368835 97.58467102 C140.31784515 99.08044174 140.31784515 99.08044174 140.9138031 100.60643005 C143.23324999 106.54737181 145.54954358 112.48953741 147.86393738 118.43244934 C148.84001308 120.93873586 149.81653865 123.44484647 150.79325867 125.95088196 C154.84436099 136.34636297 158.88515404 146.74583153 162.92118835 157.14717102 C163.28339478 158.0806134 163.6456012 159.01405579 164.01878357 159.9757843 C172.13952551 180.90502845 180.25493954 201.83634081 188.35868835 222.77217102 C188.83112976 223.99259094 189.30357117 225.21301086 189.79032898 226.47041321 C192.0901984 232.41254445 194.38804127 238.35544928 196.6829071 244.29951477 C203.57725917 262.14727757 210.53598205 279.96947427 217.51542664 297.78413391 C222.00032009 309.2321848 226.47008758 320.68593937 230.92118835 332.14717102 C231.76918214 314.24757952 232.0675224 296.37305112 232.08985329 278.45606613 C232.09591343 274.02429816 232.11257456 269.59260424 232.13119507 265.16087341 C232.13752593 263.62743189 232.14385162 262.09399035 232.15017223 260.56054878 C232.15333804 259.7946525 232.15650386 259.02875622 232.1597656 258.23965096 C232.20149377 247.96908915 232.23492914 237.69857432 232.24711609 227.42793274 C232.25550455 220.42883378 232.27798769 213.42993227 232.31647176 206.43093216 C232.33613475 202.74886201 232.34866795 199.06708617 232.34363747 195.38496017 C232.33811706 191.29874688 232.36341368 187.21327439 232.39115906 183.12715149 C232.38455765 181.92506042 232.37795624 180.72296936 232.37115479 179.48445129 C232.45997885 171.521209 233.54929591 166.13782311 238.8157196 159.90498352 C239.44864929 159.3661554 240.08157898 158.82732727 240.73368835 158.27217102 C241.67148132 157.44072571 241.67148132 157.44072571 242.6282196 156.59248352 C249.83301823 152.05112834 258.11587541 152.84348994 266.32670593 152.84077454 C267.78933125 152.8331449 269.25195258 152.82471602 270.71456909 152.81555176 C274.67338531 152.79368029 278.63212432 152.7848179 282.59099412 152.77972531 C285.06842024 152.77607329 287.54582639 152.76982889 290.02324486 152.76272392 C298.67779294 152.73825582 307.33228129 152.72518306 315.98686218 152.72163391 C324.03549485 152.71799978 332.08374595 152.68810656 340.13226205 152.64622933 C347.05820536 152.61146497 353.98402256 152.59608442 360.91005248 152.59538788 C365.03968035 152.59459721 369.16891901 152.58595589 373.29845619 152.55739021 C377.18517378 152.53110328 381.07118233 152.5290627 384.95794868 152.54504585 C386.37765813 152.54685191 387.79740936 152.5402463 389.21702957 152.52422714 C398.4820181 152.42612185 406.42298813 153.19597809 413.56261921 159.6252985 C419.09412443 165.82170434 419.21198794 171.66539895 419.18188477 179.55848694 C419.18571031 180.61813258 419.18953586 181.67777823 419.19347733 182.76953435 C419.20380967 186.32612752 419.19981465 189.88255933 419.19584656 193.43916321 C419.20019296 195.98684336 419.20537586 198.5345222 419.21133423 201.0821991 C419.22335125 207.28824637 419.2258744 213.494234 419.22353397 219.70029065 C419.22175061 224.74634277 419.22350083 229.79238176 419.22775841 234.83843231 C419.2283536 235.55675028 419.22894879 236.27506825 419.22956201 237.01515342 C419.23077378 238.47447417 419.23198791 239.93379492 419.23320439 241.39311567 C419.24408179 255.08024743 419.24191681 268.76735456 419.23581954 282.45448771 C419.23065329 294.96731608 419.24189774 307.48006652 419.26091776 319.99287948 C419.28030638 332.84697966 419.28855017 345.701043 419.28479451 358.5551579 C419.28288362 365.76929363 419.28535881 372.98336309 419.29950905 380.19748688 C419.31268553 386.9838133 419.31014884 393.76995882 419.29709816 400.55629349 C419.29473134 403.04553149 419.29747082 405.53478044 419.30572128 408.02400589 C419.31618131 411.42549155 419.30809333 414.82645359 419.29541016 418.22792053 C419.30278444 419.20994092 419.31015873 420.1919613 419.31775647 421.20373988 C419.25742401 428.91023129 418.07620459 436.50371068 412.79618835 442.45967102 C412.01888367 443.38199524 412.01888367 443.38199524 411.22587585 444.32295227 C403.30647419 450.59136003 395.11423151 450.7261919 385.34867859 450.66474915 C383.8923625 450.6701783 382.43605191 450.67730539 380.97975159 450.68598938 C377.04791599 450.70413007 373.11650308 450.69719433 369.18466067 450.68447304 C365.05776813 450.674299 360.93091018 450.68375071 356.80401611 450.6900177 C349.87661789 450.69728053 342.94939065 450.68774152 336.02201843 450.6686554 C328.02672651 450.64688059 320.03184255 450.65394778 312.03656048 450.67596102 C305.15559614 450.69414378 298.27475423 450.69665959 291.39377362 450.68620634 C287.29115908 450.67998827 283.188736 450.67908924 279.08613396 450.69235229 C275.22897089 450.70395257 271.37233129 450.69580972 267.51522446 450.67277527 C266.10437321 450.6675107 264.6934775 450.66896321 263.28264427 450.67782593 C254.22174636 450.72947501 247.88859969 450.25297827 240.7141571 444.32295227 C240.18435242 443.70806946 239.65454773 443.09318665 239.10868835 442.45967102 C238.56599304 441.85767883 238.02329773 441.25568665 237.4641571 440.63545227 C233.2974826 433.91603035 232.48633803 427.05756969 232.6282196 419.29951477 C232.63124084 418.50259216 232.63426208 417.70566956 232.63737488 416.88459778 C232.65288983 413.9511542 232.69477153 411.01789747 232.73368835 408.08467102 C232.79556335 401.50529602 232.85743835 394.92592102 232.92118835 388.14717102 C219.06118835 388.14717102 205.20118835 388.14717102 190.92118835 388.14717102 C191.51931335 391.92154602 192.11743835 395.69592102 192.73368835 399.58467102 C193.00596252 401.34122009 193.00596252 401.34122009 193.28373718 403.133255 C194.80619988 414.25240212 194.80619988 414.25240212 200.29618835 423.64717102 C205.70480589 425.88521966 211.11580082 425.97490433 216.92118835 426.14717102 C217.1635321 427.14877258 217.40587585 428.15037415 217.65556335 429.18232727 C219.36201432 436.01929002 221.03750647 442.18294526 224.92118835 448.14717102 C224.92118835 448.80717102 224.92118835 449.46717102 224.92118835 450.14717102 C196.35966729 450.2156107 167.79815653 450.26870102 139.23656952 450.30036701 C135.86451524 450.30411912 132.49246113 450.30800209 129.1204071 450.31196594 C128.11343541 450.31314634 128.11343541 450.31314634 127.08612086 450.31435058 C116.21668473 450.32740404 105.34729622 450.35105755 94.47788833 450.37862941 C83.32464343 450.40668527 72.17141483 450.42312311 61.01813424 450.4294365 C54.75359242 450.43335108 48.48915858 450.44256603 42.22465134 450.46436119 C36.32978036 450.48470441 30.43506197 450.49100914 24.54015923 450.48649406 C22.37539402 450.48732023 20.21062378 450.49329865 18.0458889 450.50478745 C15.09193308 450.51969746 12.13855455 450.51612985 9.18458557 450.50793457 C8.32659925 450.51667309 7.46861294 450.52541162 6.58462703 450.53441495 C0.76840023 450.49075437 -3.42438006 449.44767839 -7.95381165 445.52217102 C-9.752213 441.72554593 -9.94777028 438.25058679 -9.07881165 434.14717102 C-6.76393668 430.22353075 -4.42960941 427.59743694 -0.07881165 426.14717102 C1.53080031 426.0519097 3.14397811 426.01182263 4.75639343 426.00532532 C5.73783829 425.99829086 6.71928314 425.99125641 7.73046875 425.98400879 C8.78985153 425.97984451 9.84923431 425.97568024 10.9407196 425.97138977 C13.18226545 425.94819149 15.42380194 425.92407415 17.66532898 425.89912415 C21.20063031 425.86400932 24.73558735 425.83466381 28.27104187 425.82124329 C31.68219213 425.80575863 35.09233566 425.76554427 38.5032196 425.72138977 C40.08318474 425.7242524 40.08318474 425.7242524 41.69506836 425.72717285 C47.72571467 425.62680867 51.35843733 425.22637469 55.92118835 421.14717102 C59.92064469 414.58769821 60.34769471 406.6237817 61.48368835 399.14717102 C61.89603089 396.47956076 62.31571999 393.81331277 62.7375946 391.14717102 C62.91749939 389.97154602 63.09740417 388.79592102 63.28276062 387.58467102 C63.94465231 384.02083353 64.90496673 380.62436386 65.92118835 377.14717102 C64.73181671 377.15605347 63.54244507 377.16493591 62.31703186 377.17408752 C51.10525177 377.25519408 39.89353124 377.31514652 28.68152428 377.35441971 C22.91737511 377.37528929 17.15346288 377.40359597 11.38945007 377.44892883 C5.8262512 377.49240824 0.26328015 377.51631286 -5.30007553 377.52667999 C-7.42196107 377.53406754 -9.54383423 377.54849368 -11.66562271 377.57009125 C-14.63907512 377.59915257 -17.61158759 377.60312581 -20.5851593 377.60127258 C-21.46125854 377.61565369 -22.33735779 377.63003479 -23.24000549 377.64485168 C-28.76649888 377.60761144 -31.89828844 376.87116862 -36.07881165 373.14717102 C-37.00998366 367.61966403 -35.30677486 363.10022333 -33.3405304 358.01826477 C-32.91838005 356.88917442 -32.91838005 356.88917442 -32.48770142 355.73727417 C-31.89361008 354.15452523 -31.29408125 352.57380768 -30.68940735 350.99507141 C-29.76923017 348.5922919 -28.86497839 346.18400248 -27.96357727 343.77412415 C-27.38181262 342.23015828 -26.79915976 340.68652673 -26.2155304 339.14326477 C-25.94665512 338.43060959 -25.67777985 337.71795441 -25.40075684 336.98370361 C-25.14071365 336.30602432 -24.88067047 335.62834503 -24.61274719 334.93013 C-24.38846542 334.34279587 -24.16418365 333.75546173 -23.93310547 333.15032959 C-22.77155138 330.4267034 -21.402998 327.79554374 -20.07881165 325.14717102 C28.43118835 325.14717102 76.94118835 325.14717102 126.92118835 325.14717102 C122.68869608 309.99851531 122.68869608 309.99851531 114.92118835 297.14717102 C112.32859831 296.83183053 112.32859831 296.83183053 109.25184631 296.86869812 C108.04587296 296.85753464 106.8398996 296.84637115 105.59738159 296.83486938 C104.25398285 296.8325042 102.91058377 296.83032859 101.56718445 296.82832336 C100.15803448 296.81902914 98.74889004 296.80886123 97.3397522 296.79788208 C93.50735999 296.77051085 89.67500467 296.75541169 85.84254026 296.74245405 C81.83995535 296.72685454 77.83744614 296.70005427 73.83491516 296.67442322 C66.25245157 296.62757893 58.66997382 296.59086225 51.08743918 296.55775034 C42.45631324 296.51956878 33.82526323 296.4701483 25.19420123 296.41976619 C7.43658579 296.31636234 -10.32107595 296.22712952 -28.07881165 296.14717102 C-28.28598564 297.27272652 -28.28598564 297.27272652 -28.49734497 298.42102051 C-29.27912293 302.08631117 -30.65037661 305.47534454 -32.0280304 308.94795227 C-32.32313004 309.70198837 -32.61822968 310.45602448 -32.92227173 311.23291016 C-33.86640409 313.64337465 -34.81608312 316.05160398 -35.76631165 318.45967102 C-37.00116255 321.60090174 -38.23373182 324.74302349 -39.4655304 327.88545227 C-39.77078644 328.66337631 -40.07604248 329.44130035 -40.39054871 330.24279785 C-42.88426437 336.6129644 -45.29570513 343.01185866 -47.68745422 349.42085266 C-49.78235577 355.03139526 -51.90664235 360.62859733 -54.07881165 366.20967102 C-54.47842102 367.27121399 -54.8780304 368.33275696 -55.28974915 369.4264679 C-58.17817505 376.79931301 -60.88302941 383.03984445 -68.18988037 386.70970154 C-72.13195108 388.35412591 -75.88975235 388.57792748 -80.12202454 388.55122375 C-81.27952965 388.56151863 -81.27952965 388.56151863 -82.4604187 388.57202148 C-84.99095977 388.59020464 -87.52087603 388.58646529 -90.0514679 388.58076477 C-91.82071126 388.58532971 -93.58995286 388.59063622 -95.35919189 388.59664917 C-99.05852994 388.60556286 -102.75765188 388.60317594 -106.45698547 388.59321594 C-111.19046911 388.58171134 -115.92320838 388.60196919 -120.65659428 388.63113308 C-124.30696319 388.64950094 -127.95715376 388.64920176 -131.6075573 388.64349556 C-133.35262028 388.64334251 -135.09769547 388.6493735 -136.84271431 388.66178703 C-139.28394649 388.67671184 -141.72380333 388.66601133 -144.16499329 388.64888 C-144.8804834 388.65854797 -145.59597351 388.66821594 -146.33314514 388.67817688 C-151.34274091 388.60478543 -154.26559573 387.36975811 -158.07881165 384.14717102 C-159.85695754 378.59145295 -158.5540586 374.50923037 -156.3795929 369.32295227 C-156.07745377 368.56431885 -155.77531464 367.80568542 -155.46401978 367.02406311 C-154.8028896 365.36937214 -154.13432299 363.71763749 -153.45924377 362.06858826 C-151.98838034 358.4753253 -150.55332557 354.86806756 -149.11506653 351.26165771 C-148.3389032 349.31701498 -147.56077857 347.37315407 -146.78083801 345.43002319 C-142.40315932 334.51332194 -138.19179556 323.53361317 -133.9839325 312.55058289 C-132.3450117 308.27326021 -130.70221896 303.99742979 -129.05947876 299.72157288 C-127.87025563 296.62602627 -126.68148782 293.5303052 -125.49287415 290.43452454 C-125.09858215 289.40763519 -124.70429016 288.38074585 -124.29804993 287.32273865 C-123.4665836 285.15714264 -122.63520717 282.99151212 -121.8039093 280.82585144 C-116.82010773 267.84422715 -111.81675933 254.87105694 -106.74476624 241.92362976 C-99.27112389 222.83912352 -91.88596046 203.72076509 -84.51283264 184.59724426 C-79.01384492 170.33492484 -73.50624008 156.076273 -67.95381165 141.83467102 C-60.55191544 122.84607993 -53.24767962 103.81991679 -45.93818665 84.79560852 C-45.54130142 83.76275223 -45.1444162 82.72989594 -44.73550415 81.66574097 C-42.64466279 76.22416009 -40.55497462 70.78213988 -38.4667511 65.33955383 C-33.95521138 53.58646897 -29.43186847 41.84010181 -24.76631165 30.14717102 C-24.27607016 28.90498633 -23.78583584 27.66279881 -23.29560852 26.42060852 C-15.03836709 5.71654544 -15.03836709 5.71654544 -7.07881165 1.14717102 C-4.36967057 0.244124 -2.78370282 0.01653381 0 0 Z " fill="#1E74C9" transform="translate(379.0788116455078,278.8528289794922)"/>
<path d="M0 0 C1.09633255 -0.00860046 2.1926651 -0.01720093 3.32221985 -0.02606201 C4.53054977 -0.03032196 5.7388797 -0.03458191 6.98382568 -0.03897095 C8.25219772 -0.04714844 9.52056976 -0.05532593 10.82737732 -0.06375122 C15.04063795 -0.08997632 19.25390854 -0.10528061 23.46722412 -0.11953735 C24.91767127 -0.12489708 26.36811835 -0.13027459 27.81856537 -0.13566971 C33.85264347 -0.15730031 39.88671889 -0.17603644 45.92082596 -0.1872921 C54.56754034 -0.20352719 63.21380504 -0.23669153 71.86034989 -0.29369295 C77.94026389 -0.33240666 84.02005769 -0.35192652 90.1000917 -0.35721266 C93.73115995 -0.36086462 97.36174865 -0.37286777 100.99268341 -0.4053154 C105.04599185 -0.44101769 109.09833555 -0.43702165 113.15179443 -0.42959595 C114.35202744 -0.44600128 115.55226044 -0.46240662 116.78886414 -0.47930908 C117.89647598 -0.4709906 119.00408783 -0.46267212 120.14526367 -0.45410156 C121.10317432 -0.45741171 122.06108498 -0.46072186 123.04802322 -0.46413231 C126.8696753 0.38590926 129.50982394 2.03838228 131.82659912 5.15390015 C132.42810608 8.15810926 132.63287281 10.36021132 132.57504272 13.35899353 C132.58299154 14.18123742 132.59094035 15.0034813 132.59913003 15.85064167 C132.61837068 18.60420687 132.59474955 21.35571512 132.57122803 24.10922241 C132.57608423 26.08374804 132.58352323 28.05826875 132.59335327 30.03277588 C132.61217312 35.39440999 132.59332053 40.75531404 132.56668901 46.11689115 C132.54406864 51.72443846 132.55227427 57.3319496 132.55618286 62.93952942 C132.55794895 72.35575298 132.53578278 81.77168861 132.4989624 91.18783569 C132.45661429 102.08009302 132.44960976 112.97192869 132.46208632 123.86425167 C132.47346819 134.33639132 132.46218958 144.80838221 132.43973923 155.28050041 C132.43044125 159.74017012 132.42870209 164.19974895 132.43291092 168.65942574 C132.43667313 173.90854203 132.42049731 179.15722801 132.38879013 184.40624619 C132.38029202 186.33478325 132.3786117 188.26336392 132.38417053 190.1919117 C132.39059834 192.82034632 132.37249515 195.44748871 132.34799194 198.07579041 C132.35932991 199.22631837 132.35932991 199.22631837 132.37089694 200.40008932 C132.31524512 203.76391232 132.05475158 205.81928234 130.14034081 208.62703609 C127.29801685 210.50271751 125.67828797 210.65660954 122.28533936 210.66183472 C121.15812469 210.67311401 120.03091003 210.68439331 118.86953735 210.6960144 C117.63720367 210.68791748 116.40487 210.67982056 115.13519287 210.67147827 C113.18348679 210.68199219 113.18348679 210.68199219 111.19235229 210.69271851 C107.62616697 210.71095002 104.06044464 210.70388543 100.49425125 210.69120216 C96.76184086 210.68107343 93.02947005 210.69046748 89.29705811 210.69674683 C83.02916345 210.70402363 76.76145734 210.69443478 70.49359131 210.67538452 C63.24755081 210.65361553 56.00196049 210.6606669 48.7559309 210.68269014 C42.53414399 210.70084332 36.31249259 210.70340293 30.09068775 210.69293547 C26.37488742 210.68670001 22.65929869 210.68586612 18.94351196 210.69908142 C14.8014053 210.71278398 10.66007447 210.69379176 6.51800537 210.67147827 C5.28567169 210.6795752 4.05333801 210.68767212 2.78366089 210.6960144 C1.65644623 210.68473511 0.52923157 210.67345581 -0.63214111 210.66183472 C-1.61142075 210.66032661 -2.59070038 210.65881851 -3.59965515 210.65726471 C-6.92079367 210.00772757 -8.09066026 208.77011724 -10.17340088 206.15390015 C-11.38595958 202.51622404 -11.32150313 199.17988104 -11.3205719 195.39259338 C-11.32424859 194.59388724 -11.32792528 193.7951811 -11.33171338 192.97227174 C-11.34275598 190.28695848 -11.34659501 187.6016839 -11.35040283 184.91635132 C-11.35666697 182.99463274 -11.36331373 181.07291537 -11.37031555 179.15119934 C-11.38772803 173.92387232 -11.39827769 168.69655445 -11.40652108 163.46920562 C-11.41167002 160.2045442 -11.41774576 156.93988562 -11.42403221 153.67522621 C-11.44308378 143.46423488 -11.45731579 133.25325078 -11.46564418 123.04224509 C-11.47542173 111.24879479 -11.50175498 99.45553193 -11.54214507 87.6621477 C-11.57228226 78.55038993 -11.58711072 69.43868597 -11.59042519 60.32687932 C-11.59277812 54.8828302 -11.60177041 49.43898132 -11.62688637 43.99498558 C-11.65013055 38.87400886 -11.654415 33.75336477 -11.64412498 28.63234901 C-11.64362865 26.7530011 -11.6499778 24.87363701 -11.66368103 22.99433899 C-11.68134761 20.42787857 -11.67432007 17.8626187 -11.66114807 15.29615784 C-11.67211732 14.55305538 -11.68308656 13.80995292 -11.69438821 13.04433221 C-11.63148155 7.96509835 -10.37949246 5.06272909 -7.17340088 1.15390015 C-4.63230464 -0.11664798 -2.84579769 0.01658051 0 0 Z " fill="#FEFCFC" transform="translate(644.1734008789063,463.8460998535156)"/>
<path d="M0 0 C1.46262532 -0.00762964 2.92524665 -0.01605851 4.38786316 -0.02522278 C8.34667938 -0.04709425 12.30541839 -0.05595663 16.26428819 -0.06104922 C18.7417143 -0.06470125 21.21912045 -0.07094565 23.69653893 -0.07805061 C32.351087 -0.10251872 41.00557536 -0.11559147 49.66015625 -0.11914062 C57.70878892 -0.12277476 65.75704002 -0.15266797 73.80555612 -0.19454521 C80.73149943 -0.22930956 87.65731663 -0.24469012 94.58334655 -0.24538666 C98.71297442 -0.24617733 102.84221308 -0.25481865 106.97175026 -0.28338432 C110.85846785 -0.30967126 114.7444764 -0.31171184 118.63124275 -0.29572868 C120.05095219 -0.29392263 121.47070343 -0.30052823 122.89032364 -0.31654739 C132.15531217 -0.41465269 140.0962822 0.35520356 147.23591328 6.78452396 C152.76741849 12.98092981 152.885282 18.82462442 152.85517883 26.7177124 C152.85900438 27.77735805 152.86282993 28.83700369 152.8667714 29.92875981 C152.87710374 33.48535299 152.87310872 37.04178479 152.86914062 40.59838867 C152.87348702 43.14606882 152.87866993 45.69374767 152.8846283 48.24142456 C152.89664532 54.44747183 152.89916847 60.65345946 152.89682803 66.85951611 C152.89504468 71.90556823 152.8967949 76.95160723 152.90105247 81.99765778 C152.90164766 82.71597574 152.90224285 83.43429371 152.90285608 84.17437889 C152.90406784 85.63369964 152.90528198 87.09302039 152.90649845 88.55234113 C152.91737586 102.2394729 152.91521088 115.92658002 152.90911361 129.61371318 C152.90394736 142.12654154 152.91519181 154.63929199 152.93421183 167.15210494 C152.95360045 180.00620513 152.96184424 192.86026847 152.95808858 205.71438336 C152.95617769 212.92851909 152.95865288 220.14258855 152.97280312 227.35671234 C152.9859796 234.14303876 152.98344291 240.92918428 152.97039223 247.71551895 C152.9680254 250.20475695 152.97076489 252.6940059 152.97901535 255.18323135 C152.98947538 258.58471701 152.9813874 261.98567905 152.96870422 265.387146 C152.97607851 266.36916638 152.98345279 267.35118677 152.99105054 268.36296535 C152.93071808 276.06945676 151.74949866 283.66293614 146.46948242 289.61889648 C145.9512793 290.2337793 145.43307617 290.84866211 144.89916992 291.48217773 C136.97976826 297.75058549 128.78752558 297.88541736 119.02197266 297.82397461 C117.56565657 297.82940376 116.10934597 297.83653086 114.65304565 297.84521484 C110.72121006 297.86335553 106.78979715 297.8564198 102.85795474 297.8436985 C98.7310622 297.83352446 94.60420424 297.84297617 90.47731018 297.84924316 C83.54991196 297.856506 76.62268472 297.84696698 69.6953125 297.82788086 C61.70002058 297.80610606 53.70513662 297.81317325 45.70985454 297.83518648 C38.82889021 297.85336924 31.94804829 297.85588505 25.06706768 297.8454318 C20.96445315 297.83921373 16.86203006 297.83831471 12.75942802 297.85157776 C8.90226496 297.86317803 5.04562536 297.85503518 1.18851852 297.83200073 C-0.22233272 297.82673617 -1.63322843 297.82818867 -3.04406166 297.83705139 C-12.10495957 297.88870047 -18.43810624 297.41220373 -25.61254883 291.48217773 C-26.40725586 290.55985352 -26.40725586 290.55985352 -27.21801758 289.61889648 C-28.03206055 288.7159082 -28.03206055 288.7159082 -28.86254883 287.79467773 C-33.65001076 280.07413786 -33.86380965 272.21119283 -34.00624084 263.39846802 C-34.02065625 262.51207295 -34.03507166 261.62567789 -34.0499239 260.71242237 C-34.07125527 259.33581456 -34.07125527 259.33581456 -34.09301758 257.93139648 C-34.10704967 257.04609851 -34.12108175 256.16080053 -34.13553905 255.24867535 C-34.35409095 241.0601378 -34.45464395 226.87539601 -34.44067383 212.68530273 C-34.44004692 211.64818838 -34.43942001 210.61107403 -34.43877411 209.54253197 C-34.43374953 201.52217585 -34.42223742 193.50183517 -34.40900469 185.48148918 C-34.40538319 183.22256879 -34.40205824 180.96364812 -34.3987999 178.70472717 C-34.36768893 157.33846879 -34.31269775 135.97242622 -34.22160625 114.60633469 C-34.18143747 105.08130168 -34.14914761 95.5563595 -34.13452148 86.03125 C-34.1215136 77.56886931 -34.0946486 69.10666765 -34.05090451 60.6443879 C-34.02842338 56.20818348 -34.01259957 51.77219827 -34.01363373 47.33593178 C-34.01437877 43.2040573 -33.99649237 39.07268068 -33.96434975 34.94093513 C-33.95586215 33.43330913 -33.95409308 31.92562724 -33.95971489 30.41798782 C-33.98934636 21.25212056 -33.66681667 14.34966592 -27.51098633 7.06420898 C-26.87805664 6.52538086 -26.24512695 5.98655273 -25.59301758 5.43139648 C-24.96782227 4.87709961 -24.34262695 4.32280273 -23.69848633 3.75170898 C-16.4936877 -0.7896462 -8.21083052 0.0027154 0 0 Z M-11.40551758 37.30639648 C-12.93941688 40.3741951 -12.54983115 43.58783342 -12.54595947 46.95417786 C-12.54893059 47.75273514 -12.55190172 48.55129242 -12.55496287 49.37404841 C-12.56367306 52.06480575 -12.56516008 54.75551872 -12.56665039 57.44628906 C-12.57127693 59.36948238 -12.57630137 61.29267477 -12.58169556 63.21586609 C-12.59483754 68.45145324 -12.60126804 73.68702756 -12.60570621 78.92262864 C-12.6086341 82.19146476 -12.61273837 85.46029735 -12.61721039 88.7291317 C-12.63089018 98.95027139 -12.64055442 109.17140303 -12.64441228 119.39255124 C-12.64889408 131.20296752 -12.66644566 143.01326813 -12.69541287 154.82364923 C-12.71700966 163.94471374 -12.72711549 173.06574565 -12.7284534 182.18683547 C-12.72950288 187.6380941 -12.73544112 193.08924407 -12.75327301 198.54047585 C-12.76971902 203.66796247 -12.77192609 208.79525836 -12.763134 213.92276192 C-12.76236176 215.80574809 -12.76673091 217.68874436 -12.77659225 219.57170486 C-12.7892578 222.14058671 -12.78346451 224.70878748 -12.77301025 227.27766418 C-12.78106666 228.0243616 -12.78912306 228.77105902 -12.7974236 229.54038364 C-12.7436377 235.18409794 -11.35495141 238.35696266 -7.40551758 242.30639648 C-4.9756489 242.61676901 -4.9756489 242.61676901 -2.10476685 242.57382202 C-0.98030151 242.58235199 0.14416382 242.59088196 1.30270386 242.59967041 C2.54222809 242.59876404 3.78175232 242.59785767 5.05883789 242.59692383 C6.35968323 242.60364105 7.66052856 242.61035828 9.00079346 242.61727905 C12.57522848 242.63498032 16.14956781 242.63963619 19.72404242 242.64091063 C22.70616997 242.64280756 25.68827512 242.65016282 28.67039406 242.65725482 C35.70581132 242.67355246 42.74117737 242.67842256 49.77661133 242.67700195 C57.03734953 242.6758005 64.29779047 242.69689955 71.55845344 242.72848928 C77.78866759 242.75463117 84.01878454 242.76537012 90.24905312 242.76409113 C93.97162128 242.76358083 97.69392545 242.76930115 101.41643906 242.79044724 C105.56827898 242.81338709 109.71945226 242.8043216 113.87133789 242.79223633 C115.72455154 242.80909485 115.72455154 242.80909485 117.61520386 242.82629395 C118.74530884 242.81790497 119.87541382 242.80951599 121.0397644 242.8008728 C122.51258031 242.8025071 122.51258031 242.8025071 124.01515007 242.80417442 C127.49714358 242.1321945 128.59681224 241.2387211 130.59448242 238.30639648 C130.99158104 235.48406045 131.14368429 233.05022804 131.11587524 230.22828674 C131.12352634 229.40760285 131.13117743 228.58691895 131.13906038 227.74136585 C131.15972176 224.98747393 131.15173679 222.23441591 131.14379883 219.48046875 C131.15249179 217.50771308 131.16285766 215.53496417 131.17477417 213.56222534 C131.20159051 208.20065135 131.20270762 202.83935899 131.19764757 197.47773099 C131.19551065 193.00438755 131.20526839 188.53110139 131.21485841 184.05777019 C131.23706119 173.5060807 131.23791647 162.95453359 131.22583008 152.40283203 C131.2137462 141.51110065 131.23838014 130.61988571 131.28097022 119.72824246 C131.3161755 110.38205527 131.32820925 101.03603268 131.32169473 91.68978161 C131.31806449 86.1054337 131.32338606 80.5214542 131.35112381 74.93716621 C131.37622865 69.68632158 131.37244318 64.43628339 131.34630203 59.18545151 C131.34155992 57.25731449 131.34707794 55.32912117 131.36354828 53.40104866 C131.38440278 50.77025381 131.36835754 48.14218544 131.34292603 45.51148987 C131.36504888 44.36430799 131.36504888 44.36430799 131.38761866 43.19395071 C131.32999172 40.36459429 131.1307872 38.02674128 129.40785342 35.71256018 C126.0923031 32.67660753 123.34524401 31.68019619 118.93333435 31.67147827 C117.83005798 31.65737915 116.72678162 31.64328003 115.59007263 31.62875366 C114.39455276 31.63887482 113.1990329 31.64899597 111.96728516 31.65942383 C110.69672272 31.65066223 109.42616028 31.64190063 108.11709595 31.63287354 C104.64384153 31.61014329 101.17133241 31.61888905 97.69806552 31.63476896 C94.058217 31.64745821 90.41843083 31.63567974 86.77857971 31.62783813 C80.66802551 31.61875145 74.55777386 31.63070462 68.44726562 31.65454102 C61.38742681 31.68176299 54.32830975 31.67292708 47.26848835 31.64540899 C41.20033615 31.62270517 35.13240097 31.61952356 29.06422001 31.63260233 C25.44282867 31.64038845 21.82177644 31.64146181 18.20040703 31.62491989 C14.16393276 31.60776827 10.12869947 31.63155092 6.09228516 31.65942383 C4.89474106 31.64930267 3.69719696 31.63918152 2.46336365 31.62875366 C-4.02895875 31.71193372 -7.59649679 31.77999657 -11.40551758 37.30639648 Z " fill="#06121B" transform="translate(645.405517578125,431.693603515625)"/>
<path d="M0 0 C48.84 0 97.68 0 148 0 C152.49174312 10.10642202 152.49174312 10.10642202 153.7890625 13.59375 C154.23390991 14.77988892 154.23390991 14.77988892 154.68774414 15.98999023 C155.15168579 17.23244507 155.15168579 17.23244507 155.625 18.5 C156.32324689 20.33500552 157.02251314 22.16962339 157.72265625 24.00390625 C158.903566 27.10243535 160.07557231 30.20349623 161.22998047 33.31201172 C162.48857696 36.69464147 163.77360502 40.06631588 165.0625 43.4375 C165.44937988 44.49710938 165.83625977 45.55671875 166.23486328 46.6484375 C168.63419445 52.84463299 171.08333411 57.6033496 177 61 C180.44759592 62.19466997 183.88973943 62.20103716 187.515625 62.31640625 C188.76601563 62.35830078 190.01640625 62.40019531 191.3046875 62.44335938 C192.60664062 62.48267578 193.90859375 62.52199219 195.25 62.5625 C196.56742188 62.60568359 197.88484375 62.64886719 199.2421875 62.69335938 C202.49468788 62.79941917 205.74726392 62.90148024 209 63 C211.90506493 70.02811743 213.1971288 76.91052871 214.37304688 84.3984375 C215.41175041 90.41335673 216.61736487 95.52807432 221.828125 99.3359375 C224.80493976 100.24611468 227.64607682 100.43876461 230.75 100.625 C231.92046875 100.69976563 233.0909375 100.77453125 234.296875 100.8515625 C235.63492188 100.92503906 235.63492188 100.92503906 237 101 C237.24234375 102.00160156 237.4846875 103.00320313 237.734375 104.03515625 C239.44082597 110.872119 241.11631811 117.03577424 245 123 C245 123.66 245 124.32 245 125 C216.43847893 125.06843968 187.87696817 125.12153 159.31538116 125.15319599 C155.94332689 125.1569481 152.57127278 125.16083107 149.19921875 125.16479492 C148.52790429 125.16558185 147.85658983 125.16636878 147.1649325 125.16717956 C136.29549638 125.18023302 125.42610786 125.20388653 114.55669998 125.23145839 C103.40345507 125.25951425 92.25022647 125.27595209 81.09694588 125.28226548 C74.83240407 125.28618006 68.56797023 125.29539501 62.30346298 125.31719017 C56.408592 125.33753339 50.51387362 125.34383812 44.61897087 125.33932304 C42.45420567 125.34014921 40.28943542 125.34612763 38.12470055 125.35761642 C35.17074473 125.37252644 32.2173662 125.36895883 29.26339722 125.36076355 C28.4054109 125.36950207 27.54742458 125.3782406 26.66343868 125.38724393 C20.84721188 125.34358335 16.65443159 124.30050737 12.125 120.375 C10.32659864 116.57837491 10.13104137 113.10341577 11 109 C13.31487497 105.07635973 15.64920223 102.45026592 20 101 C21.60961196 100.90473867 23.22278976 100.86465161 24.83520508 100.8581543 C25.81664993 100.85111984 26.79809479 100.84408539 27.8092804 100.83683777 C28.86866318 100.83267349 29.92804596 100.82850922 31.01953125 100.82421875 C33.2610771 100.80102047 35.50261359 100.77690313 37.74414062 100.75195312 C41.27944196 100.7168383 44.81439899 100.68749279 48.34985352 100.67407227 C51.76100377 100.65858761 55.1711473 100.61837325 58.58203125 100.57421875 C60.16199638 100.57708138 60.16199638 100.57708138 61.77388 100.58000183 C67.80452631 100.47963765 71.43724897 100.07920367 76 96 C79.99945634 89.44052719 80.42650635 81.47661068 81.5625 74 C81.97484253 71.33238974 82.39453164 68.66614175 82.81640625 66 C82.99631104 64.824375 83.17621582 63.64875 83.36157227 62.4375 C84.02346396 58.87366251 84.98377838 55.47719284 86 52 C84.21594254 52.01332367 84.21594254 52.01332367 82.39584351 52.0269165 C71.18406341 52.10802306 59.97234289 52.1679755 48.76033592 52.20724869 C42.99618675 52.22811827 37.23227453 52.25642495 31.46826172 52.30175781 C25.90506284 52.34523722 20.3420918 52.36914184 14.77873611 52.37950897 C12.65685057 52.38689652 10.53497742 52.40132266 8.41318893 52.42292023 C5.43973652 52.45198155 2.46722406 52.45595479 -0.50634766 52.45410156 C-1.82049652 52.47567322 -1.82049652 52.47567322 -3.16119385 52.49768066 C-8.68768723 52.46044042 -11.8194768 51.7239976 -16 48 C-16.93117201 42.47249301 -15.22796322 37.95305231 -13.26171875 32.87109375 C-12.98028519 32.11836685 -12.69885162 31.36563995 -12.40888977 30.59010315 C-11.81479844 29.00735421 -11.21526961 27.42663666 -10.6105957 25.84790039 C-9.69041852 23.44512088 -8.78616675 21.03683146 -7.88476562 18.62695312 C-7.30300098 17.08298726 -6.72034812 15.53935571 -6.13671875 13.99609375 C-5.86784348 13.28343857 -5.5989682 12.57078339 -5.32194519 11.83653259 C-5.06190201 11.1588533 -4.80185883 10.48117401 -4.53393555 9.78295898 C-4.19751289 8.90195778 -4.19751289 8.90195778 -3.85429382 8.00315857 C-2.69273973 5.27953238 -1.32418636 2.64837272 0 0 Z " fill="#06121B" transform="translate(359,604)"/>
<path d="M0 0 C29.6740081 -0.09128421 59.34800955 -0.16205615 89.02212861 -0.20426132 C92.52679691 -0.20926404 96.03146493 -0.21444134 99.53613281 -0.21972656 C100.23383819 -0.2207758 100.93154356 -0.22182505 101.65039152 -0.22290608 C112.94205204 -0.24030316 124.23363096 -0.27183697 135.5252431 -0.30861118 C147.11468556 -0.34604009 158.70408047 -0.36794063 170.29358053 -0.37635398 C176.8019063 -0.3815698 183.3100471 -0.39383335 189.8183136 -0.42292023 C195.9446782 -0.45007836 202.07078169 -0.45844403 208.19720078 -0.45243073 C210.44498488 -0.45353077 212.69277776 -0.46148202 214.9405098 -0.4768219 C218.01213269 -0.4967555 221.08277278 -0.49192633 224.15441895 -0.48101807 C225.04159811 -0.49266943 225.92877728 -0.5043208 226.84284067 -0.51632524 C234.06826109 -0.44708134 239.15512606 1.61824507 244.6875 6.25 C250.80720441 13.52748632 253.15436688 19.15039749 253.11352539 28.6940918 C253.11367142 29.5821048 253.11381744 30.4701178 253.1139679 31.38504028 C253.11327068 34.32312454 253.10548718 37.26114556 253.09765625 40.19921875 C253.09579139 42.23517319 253.09436781 44.27112808 253.09336853 46.30708313 C253.08954869 51.66811357 253.07972292 57.02911697 253.06866455 62.39013672 C253.05843899 67.8596968 253.05386845 73.32926124 253.04882812 78.79882812 C253.0381002 89.53256589 253.02050769 100.26627646 253 111 C242.11 111 231.22 111 220 111 C219.96132813 103.16507813 219.96132813 103.16507813 219.921875 95.171875 C219.896709 91.86323209 219.87037823 88.55468082 219.83984375 85.24609375 C219.79148687 79.99429979 219.74745082 74.74271793 219.72900391 69.49072266 C219.7138619 65.25647976 219.67946081 61.02279159 219.63169098 56.78879547 C219.61685167 55.17332022 219.60895752 53.55776578 219.60811615 51.9422226 C219.60575226 49.67930435 219.57872295 47.41792639 219.54589844 45.15527344 C219.53701599 43.86731873 219.52813354 42.57936401 219.51898193 41.25238037 C218.91408746 37.46159928 217.99390615 36.31292076 215 34 C211.87828465 32.43914233 208.55629622 32.84610043 205.12875366 32.84178162 C204.30625079 32.83684364 203.48374791 32.83190566 202.63632071 32.82681805 C199.86480837 32.81139143 197.09331928 32.8030685 194.32177734 32.79467773 C192.34120985 32.78510326 190.36064443 32.77509344 188.38008118 32.76467896 C182.9898888 32.7375771 177.59968762 32.71659618 172.20946455 32.69667697 C166.58132785 32.67484992 160.95321846 32.64744522 155.32510376 32.62062073 C144.66143753 32.57064937 133.99775618 32.52572706 123.33406031 32.48259836 C111.1963792 32.4332639 99.05872546 32.37833174 86.92107081 32.32291877 C61.94740608 32.20903054 36.97371508 32.10220644 12 32 C11.20830503 30.10516225 10.4171513 28.21009835 9.6262207 26.31494141 C9.18558792 25.2596524 8.74495514 24.2043634 8.29096985 23.11709595 C6.53978934 18.88880381 4.8497562 14.63888898 3.1875 10.375 C2.87619141 9.58738281 2.56488281 8.79976563 2.24414062 7.98828125 C0 2.23736264 0 2.23736264 0 0 Z " fill="#05101A" transform="translate(513,306)"/>
<path d="M0 0 C0.66 0 1.32 0 2 0 C6.44633981 10.85599851 10.73593252 21.72472421 14.47680664 32.84667969 C16.31075341 38.24298963 18.42037374 43.47845767 20.63696289 48.72851562 C23.15678988 54.77646147 25.51143837 60.88974021 27.875 67 C28.13734436 67.67675781 28.39968872 68.35351562 28.66998291 69.05078125 C32.17476712 78.10212152 35.55331461 87.18430022 38.68334961 96.37304688 C40.85010515 102.70341169 43.32380106 108.87132157 45.93359375 115.03125 C47 118 47 118 47 122 C16.31 122 -14.38 122 -46 122 C-42.62512803 110.75042677 -42.62512803 110.75042677 -41.14086914 106.91650391 C-40.80451447 106.04214691 -40.46815979 105.16778992 -40.12161255 104.26693726 C-39.76308197 103.34611359 -39.40455139 102.42528992 -39.03515625 101.4765625 C-38.64939423 100.47670319 -38.2636322 99.47684387 -37.86618042 98.44668579 C-36.60169644 95.17146138 -35.33208079 91.89825169 -34.0625 88.625 C-33.17677027 86.33316022 -32.29144143 84.04116546 -31.40649414 81.74902344 C-29.55543333 76.95545007 -27.7026234 72.16255814 -25.84863281 67.37011719 C-21.63650419 56.47772826 -17.44594738 45.57704161 -13.25509644 34.67645264 C-11.95791517 31.30309033 -10.65985974 27.93006561 -9.36157227 24.55712891 C-8.56265078 22.48079888 -7.76374068 20.40446447 -6.96484375 18.328125 C-6.60631317 17.39698883 -6.24778259 16.46585266 -5.87838745 15.50650024 C-3.89387664 10.34679591 -1.93330996 5.17911462 0 0 Z " fill="#FCFBFB" transform="translate(423,376)"/>
<path d="M0 0 C0.72252457 -0.0066568 1.44504913 -0.0133136 2.18946838 -0.02017212 C3.71849011 -0.03030212 5.24755608 -0.03498903 6.77661133 -0.03466797 C9.11678897 -0.03903986 11.45507836 -0.07534716 13.79492188 -0.11328125 C15.27994146 -0.11914967 16.76497001 -0.12311889 18.25 -0.125 C18.95007675 -0.13937103 19.6501535 -0.15374207 20.3714447 -0.16854858 C23.58918821 -0.13827408 25.2629708 -0.06307317 27.66430664 2.17333984 C29.13148571 5.2625417 28.65344798 7.10622599 27.69140625 10.3359375 C26.55419922 11.99023438 26.55419922 11.99023438 24.69140625 13.3359375 C20.45364521 13.9261358 16.19601652 13.85092276 11.92236328 13.83691406 C9.82964632 13.83594364 7.74062295 13.87751771 5.6484375 13.921875 C4.31120553 13.92708408 2.97396087 13.92977016 1.63671875 13.9296875 C-0.18061768 13.94032227 -0.18061768 13.94032227 -2.03466797 13.95117188 C-6.22182831 13.16432295 -7.72993368 11.66505298 -10.30859375 8.3359375 C-10.15751518 0.63093049 -6.80117441 0.0215596 0 0 Z " fill="#F7F6F6" transform="translate(696.30859375,694.6640625)"/>
<path d="M0 0 C16.5 0 33 0 50 0 C49.34 0.33 48.68 0.66 48 1 C48 1.66 48 2.32 48 3 C32.16 3 16.32 3 0 3 C0 2.01 0 1.02 0 0 Z " fill="#131C21" transform="translate(379,705)"/>
<path d="M0 0 C3 2 3 2 3.875 4.375 C5.52104015 8.21576035 8.31709403 10.15854702 12 12 C14.33727092 12.15034618 16.67867461 12.23759342 19.02001953 12.29711914 C19.74207581 12.31677231 20.46413208 12.33642548 21.20806885 12.35667419 C23.5995561 12.42064891 25.99115522 12.47792144 28.3828125 12.53515625 C30.03906306 12.57815592 31.69530286 12.62157243 33.35153198 12.66539001 C37.7145617 12.77969486 42.07771518 12.888322 46.44091797 12.99578857 C50.89168971 13.10641013 55.34232191 13.22237145 59.79296875 13.33789062 C68.52851779 13.56383584 77.26420471 13.78378633 86 14 C86 14.33 86 14.66 86 15 C72.14 15 58.28 15 44 15 C44 16.65 44 18.3 44 20 C43.34 18.68 42.68 17.36 42 16 C40.78268188 15.97812622 40.78268188 15.97812622 39.54077148 15.95581055 C35.83921807 15.88102368 32.13853621 15.78446239 28.4375 15.6875 C26.52227539 15.65366211 26.52227539 15.65366211 24.56835938 15.61914062 C10.83858876 15.22686146 10.83858876 15.22686146 5.0390625 10.3515625 C2.29021684 6.99523713 0.2732183 4.50810194 0 0 Z " fill="#5392D3" transform="translate(526,652)"/>
<path d="M0 0 C1.33846463 0.00063142 2.67703621 0.02312425 4.01489258 0.06347656 C5.07393547 0.07196625 5.07393547 0.07196625 6.15437317 0.08062744 C8.40675009 0.10299746 10.65752886 0.15318957 12.90942383 0.20410156 C14.43739562 0.224166 15.96539239 0.24241688 17.4934082 0.25878906 C21.23686139 0.30286354 24.97912178 0.37189082 28.72192383 0.45410156 C28.72192383 1.11410156 28.72192383 1.77410156 28.72192383 2.45410156 C29.71192383 2.78410156 30.70192383 3.11410156 31.72192383 3.45410156 C31.39192383 4.11410156 31.06192383 4.77410156 30.72192383 5.45410156 C30.22692383 4.95910156 30.22692383 4.95910156 29.72192383 4.45410156 C27.30863457 4.36558764 24.92417868 4.33883491 22.51098633 4.35644531 C21.78704681 4.35786026 21.0631073 4.35927521 20.31723022 4.36073303 C17.99375341 4.36634696 15.67037163 4.37889071 13.34692383 4.39160156 C11.7870294 4.39661574 10.22713344 4.40117879 8.66723633 4.40527344 C5.8034472 4.41345767 2.939694 4.42416832 0.07592773 4.43823242 C-2.04205647 4.44825346 -4.16006826 4.45410156 -6.27807617 4.45410156 C-4.53669363 1.15944 -3.77030803 0.52228889 0 0 Z " fill="#141A20" transform="translate(692.278076171875,691.5458984375)"/>
<path d="M0 0 C0.66 0.33 1.32 0.66 2 1 C2 1.66 2 2.32 2 3 C2.66 3.33 3.32 3.66 4 4 C3.54625 4.433125 3.0925 4.86625 2.625 5.3125 C0.79975666 7.10798342 0.79975666 7.10798342 -1 10 C-1.66 10 -2.32 10 -3 10 C-3.0825 10.639375 -3.165 11.27875 -3.25 11.9375 C-4.29520372 16.20541517 -6.14091826 20.03107667 -8 24 C-9.1863116 20.44106521 -8.76263693 19.73720732 -7.3828125 16.3671875 C-6.84333984 15.03494141 -6.84333984 15.03494141 -6.29296875 13.67578125 C-5.90753906 12.75152344 -5.52210938 11.82726562 -5.125 10.875 C-4.74730469 9.94300781 -4.36960937 9.01101563 -3.98046875 8.05078125 C-1.16333128 1.16333128 -1.16333128 1.16333128 0 0 Z " fill="#1666C3" transform="translate(363,289)"/>
<path d="M0 0 C3 2 3 2 3.875 4.375 C5.52104015 8.21576035 8.31709403 10.15854702 12 12 C12 12.66 12 13.32 12 14 C6.80102888 12.62380176 3.91856195 9.33136901 1 5 C0.125 2.0625 0.125 2.0625 0 0 Z " fill="#1D82DC" transform="translate(526,652)"/>
<path d="M0 0 C2.09350689 3.4019487 2.17942163 6.05272412 2 10 C1.34 10 0.68 10 0 10 C-0.33 11.32 -0.66 12.64 -1 14 C-1.66 13.67 -2.32 13.34 -3 13 C-2.690625 12.34 -2.38125 11.68 -2.0625 11 C-0.75039745 7.29523985 -0.39735865 3.90736009 0 0 Z " fill="#1E2327" transform="translate(439,685)"/>
<path d="M0 0 C0.66 0.33 1.32 0.66 2 1 C2 3.97 2 6.94 2 10 C0.00902154 7.01353231 -0.94124926 4.40312738 -2 1 C-1.34 0.67 -0.68 0.34 0 0 Z " fill="#F0F5F9" transform="translate(609,604)"/>
<path d="M0 0 C2.7972908 2.06756277 3.02692273 3.14440371 3.6875 6.6875 C3.790625 7.780625 3.89375 8.87375 4 10 C2 8.375 2 8.375 0 6 C-0.25 2.75 -0.25 2.75 0 0 Z " fill="#1665C6" transform="translate(511,361)"/>
</svg>
